<svg xmlns="http://www.w3.org/2000/svg" xmlns:xlink="http://www.w3.org/1999/xlink" xmlns:xodm="http://www.corel.com/coreldraw/odm/2003" xml:space="preserve" width="38.1mm" height="21.7055mm" style="shape-rendering:geometricPrecision; text-rendering:geometricPrecision; image-rendering:optimizeQuality; fill-rule:evenodd; clip-rule:evenodd" viewBox="0 0 1234.8 703.46">
 <defs>
  
  
  <style type="text/css">
   <![CDATA[
    @font-face { font-family:"Humnst777 Lt BT";font-variant:normal;font-weight:normal;src:url("#FontID1") format(svg)}
    @font-face { font-family:"Archive";font-variant:normal;font-weight:normal;src:url("#FontID0") format(svg)}
    .fil1 {fill:white}
    .fil0 {fill:white;fill-rule:nonzero}
    .fnt1 {font-weight:normal;font-size:80.27px;font-family:'Humnst777 Lt BT'}
    .fnt0 {font-weight:normal;font-size:137.65px;font-family:'Archive'}
   ]]>
  </style>
 </defs>
 <g id="Capa_x0020_1">
  <metadata id="CorelCorpID_0Corel-Layer"></metadata>
  <g id="_2453714056560">
   <g>
    <path class="fil0" d="M579.69 212.32c0,0 98.21,-125.67 175.76,-74.52 64.13,41.48 165.64,256.49 177,297.11 -61.89,-103.31 -155.21,-227.57 -204.86,-251.91 -53.82,-26.4 -147.9,29.32 -147.9,29.32z"></path>
    <path class="fil0" d="M355.73 36.32c7.28,57.27 108.01,289.16 181.73,322.66 0,0 52.42,41.6 158.08,-75.71 0,0 -102.63,53.14 -142.62,26.6 -75.71,-53.25 -180.68,-233.96 -197.19,-273.55z"></path>
    <path class="fil0" d="M-0 379.28c56.36,-46.68 546.7,-432.16 749.76,-373.15 137.11,57.28 189.17,256.87 189.17,256.87 0,0 -121.48,-177.77 -225.79,-173.39 -52.34,1.98 -116.74,11.58 -195.95,44.59 -171.82,57.27 -517.2,245.08 -517.2,245.08z"></path>
    <path class="fil0" d="M349.52 216.12c4.95,14.11 73.01,281.22 267.22,256.87 175.41,-22.16 557.61,-300.42 618.05,-355.14 -257.48,168.9 -596.44,324.74 -709.68,278.78 0,0 -77.77,-28.28 -175.59,-180.51z"></path>
   </g>
   <g>
    <text x="62.84" y="617.87" class="fil1 fnt0">GRUPO BRAVAJAL</text>
    <text x="169.9" y="702.5" class="fil1 fnt1">CONSULTORÍA DE OBRAS</text>
   </g>
  </g>
 </g>
</svg>